<svg xmlns="http://www.w3.org/2000/svg" viewBox="0 0 48 60" x="0px" y="0px"><title>Application-ServiceStage</title><g data-name="Layer 3"><path d="M20.35,22.41l-.27.61C18.5,26.28,17.59,28,15.7,27.73c-.08,0-.26-.33-.26-.88,0-.78.6-2.27,2.88-2.36a.59.59,0,0,0,.46-.19.63.63,0,0,0,.15-.49.62.62,0,0,0-.62-.54,2.69,2.69,0,0,0-.73.07,5,5,0,0,1-1.09-4.09.66.66,0,0,0-.47-.69H16a.66.66,0,0,0-.7.5,6.89,6.89,0,0,0,1,4.68,3.74,3.74,0,0,0-2.1,3,1.86,1.86,0,0,0,1.4,2.2h.44c2.59,0,3.89-2.76,5.14-5.44l.26-.6a13.9,13.9,0,0,1,7.25-7.34c3.13-1.27,6-1.56,7.89-.79a3.38,3.38,0,0,1,1.75,1.82c.46,1.37-1.53,2.82-2.82,3.59a10,10,0,0,0-3-.76c-1.81-.17-5.9.21-7.22,1.53a1.7,1.7,0,0,0-.48,1.17,1.08,1.08,0,0,0,.6.93c1.25.87,4.74.8,6.28.28l.54-.22a36.31,36.31,0,0,0,3.33-1.49c.79.41,1,.69,1,.85a.48.48,0,0,1-.19.47l0,0a5.69,5.69,0,0,1-4,1.16.59.59,0,0,0-.61.62.58.58,0,0,0,.6.61h0c1.58.08,3.92-.51,5-1.64a1.73,1.73,0,0,0,.48-1.45,2.57,2.57,0,0,0-1-1.45c2.35-1.54,3.28-3.1,2.75-4.61a4.36,4.36,0,0,0-2.37-2.55c-2.14-1-5.3-.73-8.88.7A15.51,15.51,0,0,0,20.35,22.41Zm10.93-.35h0A8.78,8.78,0,0,1,26.17,22l-.07-.05a.44.44,0,0,1,.12-.2c.74-.73,3.36-1.17,5.47-1.17h.76a11.19,11.19,0,0,1,1.68.3A25.37,25.37,0,0,1,31.28,22.06Z"/><path d="M25.41,29.29a10.29,10.29,0,0,0-5.6-2.43.61.61,0,0,0,0,1.22h0c2.78.26,4.75,1.93,6.54,3.63l.18.17c1.59,1.42,3.09,2.76,5,2.76a2,2,0,0,0,.73-.09,3.07,3.07,0,0,0,2.59-2.3,5.22,5.22,0,0,0-1.26-5.15c-2.11-2.38-6.47-3-11.37-1.54a.57.57,0,0,0-.37.34.53.53,0,0,0,0,.41.62.62,0,0,0,.34.37.53.53,0,0,0,.41,0,14.74,14.74,0,0,1,6.36-.55A6.19,6.19,0,0,0,25.41,29.29Zm8.3,2.59a2.11,2.11,0,0,1-1.61,1.45,3.5,3.5,0,0,1-1.48-.12A3.45,3.45,0,0,1,33.87,31,7.1,7.1,0,0,1,33.71,31.88Zm-.3-2.94a6.22,6.22,0,0,1,.33.83,4.7,4.7,0,0,0-4.22,2.95A11.68,11.68,0,0,1,28.47,32,4.25,4.25,0,0,1,33.41,28.94Zm-2.1-2.08a4.51,4.51,0,0,1,1.16.79,5.54,5.54,0,0,0-5,3.35l-.24-.24a4.33,4.33,0,0,0-.4-.36,4,4,0,0,1-.31-.27C27,28.11,29.29,27,31.31,26.86Z"/><path d="M15.09,24h.26a.71.71,0,0,0,.35-.17.43.43,0,0,0-.09-.61,3,3,0,0,1-1.31-1.93.44.44,0,1,0-.87.18A4.14,4.14,0,0,0,15.09,24Z"/><path d="M40.77,21A.75.75,0,0,0,39.71,22a8.73,8.73,0,0,1-6.18,14.91H13.27a8.74,8.74,0,0,1-8.73-8.73,8.42,8.42,0,0,1,2.29-6.28,9.86,9.86,0,0,1,6.39-2.45H14v-.76A9.19,9.19,0,0,1,29.4,12a.76.76,0,0,0,1.06,0,.75.75,0,0,0-.05-1.06A10.69,10.69,0,0,0,12.51,18a11,11,0,0,0-6.73,2.84A9.91,9.91,0,0,0,3,28.21,10.24,10.24,0,0,0,13.27,38.44H33.53A10.23,10.23,0,0,0,40.77,21Z"/></g><text x="0" y="63" fill="#000000" font-size="5px" font-weight="bold" font-family="'Helvetica Neue', Helvetica, Arial-Unicode, Arial, Sans-serif">Created by Fengquan Li</text><text x="0" y="68" fill="#000000" font-size="5px" font-weight="bold" font-family="'Helvetica Neue', Helvetica, Arial-Unicode, Arial, Sans-serif">from the Noun Project</text></svg>